<svg width="40" height="41" viewBox="0 0 40 41" fill="none" xmlns="http://www.w3.org/2000/svg">
<rect width="40" height="41" fill="#F5F5F5"/>
<g clip-path="url(#clip0_0_1)">
<rect width="1920" height="3172" transform="translate(-316 -93)" fill="white"/>
<rect x="-314" y="-29.5" width="1920" height="100" fill="white"/>
<g clip-path="url(#clip1_0_1)">
<path d="M20.0022 40.5C23.9584 40.5 27.8258 39.3268 31.1153 37.1287C34.4047 34.9306 36.9684 31.8065 38.4822 28.1513C39.996 24.4961 40.3919 20.4741 39.6197 16.594C38.8476 12.7138 36.9421 9.14975 34.1443 6.35257C31.3465 3.55539 27.7821 1.65071 23.9017 0.879418C20.0214 0.108123 15.9995 0.504857 12.3447 2.01945C8.68981 3.53404 5.56619 6.09845 3.36884 9.38837C1.1715 12.6783 -0.000865409 16.5459 4.793e-07 20.5022C0.00579632 25.8049 2.11517 30.8887 5.86517 34.6379C9.61518 38.3871 14.6995 40.4954 20.0022 40.5ZM14.311 14.8855C14.6738 14.8855 15.0285 14.993 15.3301 15.1946C15.6318 15.3961 15.8669 15.6826 16.0057 16.0178C16.1445 16.353 16.1809 16.7218 16.1101 17.0776C16.0393 17.4334 15.8646 17.7603 15.6081 18.0168C15.3516 18.2733 15.0247 18.448 14.6689 18.5188C14.3131 18.5896 13.9443 18.5533 13.6091 18.4144C13.2739 18.2756 12.9874 18.0405 12.7859 17.7388C12.5843 17.4372 12.4767 17.0825 12.4767 16.7198C12.4773 16.4776 12.5257 16.2379 12.6192 16.0144C12.7127 15.791 12.8494 15.5882 13.0215 15.4178C13.1935 15.2473 13.3976 15.1126 13.6219 15.0212C13.8462 14.9299 14.0864 14.8837 14.3285 14.8855H14.311ZM13.2735 7.03168V12.9067C12.3559 13.1623 11.562 13.7417 11.0386 14.5376C10.5153 15.3335 10.298 16.292 10.427 17.2358C10.556 18.1795 11.0225 19.0446 11.7402 19.6709C12.4579 20.2972 13.3782 20.6422 14.3307 20.6422C15.2833 20.6422 16.2036 20.2972 16.9213 19.6709C17.639 19.0446 18.1055 18.1795 18.2345 17.2358C18.3635 16.292 18.1462 15.3335 17.6229 14.5376C17.0995 13.7417 16.3056 13.1623 15.388 12.9067V6.15612C16.878 5.67106 18.4352 5.42432 20.0022 5.42502H20.2123V21.1282H25.9472C26.2028 22.0458 26.7822 22.8398 27.5781 23.3631C28.374 23.8864 29.3325 24.1037 30.2763 23.9747C31.2201 23.8457 32.0852 23.3792 32.7114 22.6615C33.3377 21.9438 33.6828 21.0235 33.6828 20.071C33.6828 19.1184 33.3377 18.1981 32.7114 17.4804C32.0852 16.7627 31.2201 16.2962 30.2763 16.1672C29.3325 16.0382 28.374 16.2555 27.5781 16.7789C26.7822 17.3022 26.2028 18.0961 25.9472 19.0137H22.3268V5.63078C24.5309 5.96516 26.6329 6.78641 28.4799 8.03485C30.3269 9.28328 31.8725 10.9275 33.0045 12.8481C34.1365 14.7687 34.8263 16.9174 35.0239 19.1379C35.2215 21.3585 34.9219 23.5952 34.1469 25.6855H17.4324C17.1768 24.7679 16.5975 23.974 15.8016 23.4506C15.0057 22.9273 14.0471 22.71 13.1034 22.839C12.1596 22.968 11.2945 23.4345 10.6682 24.1522C10.0419 24.8699 9.69686 25.7902 9.69686 26.7427C9.69686 27.6953 10.0419 28.6156 10.6682 29.3333C11.2945 30.051 12.1596 30.5175 13.1034 30.6465C14.0471 30.7755 15.0057 30.5582 15.8016 30.0349C16.5975 29.5115 17.1768 28.7176 17.4324 27.8H33.1706C32.0278 29.8653 30.4156 31.633 28.464 32.9606C26.5124 34.2882 24.276 35.1384 21.9353 35.4427C19.5947 35.747 17.2153 35.4969 14.9891 34.7125C12.7629 33.9281 10.7522 32.6314 9.1193 30.927C7.4864 29.2226 6.277 27.1583 5.58866 24.9005C4.90032 22.6428 4.75233 20.2548 5.15661 17.9293C5.5609 15.6039 6.50614 13.406 7.91608 11.513C9.32603 9.62001 11.1612 8.08496 13.2735 7.03168ZM27.9129 20.0644C27.912 19.7004 28.0192 19.3443 28.2209 19.0412C28.4226 18.7382 28.7098 18.5019 29.0459 18.3622C29.3821 18.2224 29.7521 18.1857 30.1092 18.2565C30.4663 18.3273 30.7943 18.5025 31.0517 18.7599C31.3091 19.0173 31.4843 19.3453 31.5551 19.7024C31.6259 20.0595 31.5891 20.4295 31.4494 20.7657C31.3097 21.1018 31.0734 21.389 30.7703 21.5907C30.4673 21.7924 30.1112 21.8996 29.7472 21.8987C29.2626 21.8976 28.798 21.7051 28.4545 21.3633C28.111 21.0214 27.9163 20.5578 27.9129 20.0732V20.0644ZM15.4668 26.7318C15.4668 27.0955 15.3589 27.4509 15.1569 27.7533C14.9549 28.0557 14.6677 28.2914 14.3317 28.4305C13.9958 28.5697 13.6261 28.6061 13.2694 28.5351C12.9127 28.4642 12.5851 28.2891 12.328 28.0319C12.0708 27.7748 11.8957 27.4472 11.8247 27.0905C11.7538 26.7338 11.7902 26.3641 11.9294 26.0282C12.0686 25.6922 12.3042 25.405 12.6066 25.203C12.909 25.001 13.2645 24.8931 13.6281 24.8931C14.1158 24.8931 14.5834 25.0868 14.9283 25.4317C15.2731 25.7765 15.4668 26.2442 15.4668 26.7318Z" fill="url(#paint0_linear_0_1)"/>
</g>
</g>
<defs>
<linearGradient id="paint0_linear_0_1" x1="-0.253381" y1="14.8764" x2="40.4432" y2="15.5935" gradientUnits="userSpaceOnUse">
<stop stop-color="#351EE0"/>
<stop offset="1" stop-color="#3F74EF"/>
</linearGradient>
<clipPath id="clip0_0_1">
<rect width="1920" height="3172" fill="white" transform="translate(-316 -93)"/>
</clipPath>
<clipPath id="clip1_0_1">
<rect width="40" height="40" fill="white" transform="translate(0 0.5)"/>
</clipPath>
</defs>
</svg>
